<?xml version="1.0" standalone="no"?>
<!DOCTYPE svg PUBLIC "-//W3C//DTD SVG 20010904//EN"
 "http://www.w3.org/TR/2001/REC-SVG-20010904/DTD/svg10.dtd">
<svg version="1.0" xmlns="http://www.w3.org/2000/svg"
 width="225.000000pt" height="225.000000pt" viewBox="0 0 225.000000 225.000000"
 preserveAspectRatio="xMidYMid meet">

<g transform="translate(0.000000,225.000000) scale(0.100000,-0.100000)"
fill="#000000" stroke="none">
<path d="M1019 2237 c-152 -43 -248 -166 -257 -332 -4 -75 -7 -82 -38 -113
-40 -39 -52 -88 -32 -140 16 -43 68 -82 109 -82 21 0 29 -5 29 -18 0 -52 36
-119 92 -174 32 -32 58 -64 58 -71 0 -11 -27 -15 -114 -20 -121 -6 -157 -17
-209 -66 -58 -53 -71 -94 -75 -233 l-4 -128 -128 0 c-197 0 -202 -6 -198 -289
3 -175 5 -195 21 -205 15 -9 21 -7 33 8 11 16 14 60 14 207 0 183 1 188 22
203 20 14 111 16 783 16 672 0 763 -2 783 -16 20 -13 22 -24 22 -93 0 -86 15
-115 48 -94 21 13 29 152 11 195 -25 61 -47 68 -204 68 l-142 0 -5 122 c-6
134 -19 182 -66 232 -46 49 -104 68 -224 74 -104 5 -108 6 -108 28 0 14 8 25
19 29 44 14 112 116 125 188 6 31 11 37 32 37 112 0 161 150 73 224 -25 22
-29 31 -29 78 0 58 -24 164 -42 185 -6 8 -17 12 -24 9 -16 -6 -64 56 -64 82 0
66 -195 122 -311 89z m264 -422 l39 -33 -4 -140 c-3 -139 -3 -140 -34 -184
-79 -108 -244 -121 -330 -26 -46 50 -57 88 -62 209 l-4 116 93 6 c102 6 158
22 216 61 21 15 40 26 43 26 3 -1 22 -16 43 -35z m-453 -121 l0 -66 -27 6
c-16 4 -34 14 -40 23 -30 39 -3 103 44 103 22 0 23 -3 23 -66z m624 44 c23
-33 19 -64 -10 -87 -45 -36 -54 -28 -54 44 0 62 1 65 24 65 14 0 32 -10 40
-22z m-284 -475 c0 -44 -24 -73 -61 -73 -34 0 -69 41 -69 81 0 29 0 29 65 29
l65 0 0 -37z m-171 -78 c21 -36 71 -65 112 -65 37 0 91 32 111 67 l20 33 97 0
c123 0 174 -22 209 -90 19 -38 22 -60 22 -152 l0 -108 -47 0 c-27 0 -58 -3
-70 -6 -21 -6 -22 -3 -25 77 -3 80 -4 84 -27 87 -33 5 -41 -12 -41 -96 l0 -72
-252 2 -252 3 3 62 c3 73 -11 106 -42 101 -20 -3 -22 -10 -27 -83 l-5 -80 -67
-3 -68 -3 0 116 c0 151 15 187 95 229 21 11 59 16 132 16 l101 0 21 -35z"/>
<path d="M586 624 c-3 -9 -6 -95 -6 -193 0 -131 3 -182 13 -195 11 -16 25 -18
98 -15 75 4 90 7 122 32 82 62 107 191 57 292 -38 77 -73 95 -185 95 -75 0
-94 -3 -99 -16z m202 -76 c54 -52 53 -169 -3 -225 -29 -29 -40 -33 -84 -33
l-51 0 0 138 c0 76 3 142 8 146 14 14 106 -5 130 -26z"/>
<path d="M1016 625 c-12 -32 -7 -380 6 -393 19 -19 182 -16 199 4 25 30 -1 49
-75 52 l-66 3 0 54 0 55 65 0 c52 0 67 4 72 16 12 33 -11 49 -76 52 l-61 3 0
54 0 54 73 3 c69 3 72 4 72 28 0 25 -1 25 -101 28 -86 2 -103 0 -108 -13z"/>
<path d="M1344 626 c-6 -16 110 -369 129 -393 14 -18 41 -16 59 5 22 25 133
365 125 385 -4 10 -17 17 -31 17 -23 0 -28 -11 -72 -145 -27 -79 -50 -143 -52
-141 -1 2 -25 66 -51 142 -45 128 -51 139 -75 142 -17 2 -28 -2 -32 -12z"/>
<path d="M1936 485 c-3 -9 -6 -101 -6 -204 0 -132 -4 -191 -12 -199 -17 -17
-1569 -17 -1586 0 -7 7 -12 42 -12 89 0 81 -11 104 -47 97 -16 -3 -18 -15 -18
-101 0 -96 0 -97 33 -129 l32 -33 805 0 805 0 32 33 33 32 0 213 0 212 -26 3
c-17 2 -29 -3 -33 -13z"/>
</g>
</svg>
